<?xml version="1.0" encoding="UTF-8"?>
<svg width="982px" height="303px" viewBox="0 0 982 303" version="1.1" xmlns="http://www.w3.org/2000/svg" xmlns:xlink="http://www.w3.org/1999/xlink">
    <!-- Generator: Sketch 41 (35326) - http://www.bohemiancoding.com/sketch -->
    <title>Group 9</title>
    <desc>Created with Sketch.</desc>
    <defs></defs>
    <g id="Page-1" stroke="none" stroke-width="1" fill="none" fill-rule="evenodd">
        <g id="Services-Page" transform="translate(-159.000000, -260.000000)">
            <g id="Group-9" transform="translate(160.000000, 260.000000)">
                <g id="Page-1">
                    <polyline id="Stroke-1" stroke="#00BFB3" stroke-width="4" stroke-linejoin="round" points="319.7272 240.6506 474.5162 137.7406 567.5692 171.0006 659.7272 81.0006"></polyline>
                    <path d="M377.4006,202.3069 L430.5946,127.4119" id="Stroke-2" stroke="#00BFB3" stroke-width="2" stroke-linejoin="round"></path>
                    <path d="M411.3049,179.7659 L443.9349,133.8239" id="Stroke-3" stroke="#00BFB3" stroke-width="2" stroke-linejoin="round"></path>
                    <path d="M510.4449,150.582 L570.8749,90.308" id="Stroke-4" stroke="#00BFB3" stroke-width="2" stroke-linejoin="round"></path>
                    <path d="M523.6187,155.2908 L580.4437,98.6128" id="Stroke-5" stroke="#00BFB3" stroke-width="2" stroke-linejoin="round"></path>
                    <path d="M536.7925,159.9995 L590.3595,106.5715" id="Stroke-6" stroke="#00BFB3" stroke-width="2" stroke-linejoin="round"></path>
                    <path d="M549.9662,164.7082 L599.5812,115.2212" id="Stroke-7" stroke="#00BFB3" stroke-width="2" stroke-linejoin="round"></path>
                    <g id="Group-182" transform="translate(0.000000, 0.802000)">
                        <path d="M319.7272,250.1981 L319.7272,50.1981 C319.7272,44.6751 323.7332,40.1981 328.6742,40.1981 L650.7802,40.1981 C655.7212,40.1981 659.7272,44.6751 659.7272,50.1981 L659.7272,250.1981 L319.7272,250.1981 L319.7272,250.1981 Z" id="Stroke-8" stroke="#13A7DF" stroke-width="4" stroke-linecap="round" stroke-linejoin="round"></path>
                        <polyline id="Stroke-10" stroke="#13A7DF" stroke-width="4" stroke-linecap="round" stroke-linejoin="round" points="497.2711 145.0713 561.3061 81.2023 612.8731 125.9553"></polyline>
                        <polyline id="Stroke-12" stroke="#13A7DF" stroke-width="4" stroke-linecap="round" stroke-linejoin="round" points="343.4962 224.046 417.2532 120.198 465.1042 143.196"></polyline>
                        <path d="M39.7272,250.1981 L939.7272,250.1981" id="Stroke-14" stroke="#00BFB3" stroke-width="4" stroke-linecap="round" stroke-linejoin="round"></path>
                        <path d="M139.7272,260.1981 L839.7272,260.1981" id="Stroke-16" stroke="#13A7DF" stroke-width="2" stroke-linecap="round" stroke-linejoin="round"></path>
                        <path d="M330.908,210.1981 L168.546,210.1981 C163.676,210.1981 159.727,206.2501 159.727,201.3791 L159.727,79.0171 C159.727,74.1461 163.676,70.1981 168.546,70.1981 L330.908,70.1981 C335.779,70.1981 339.727,74.1461 339.727,79.0171 L339.727,201.3791 C339.727,206.2501 335.779,210.1981 330.908,210.1981" id="Fill-18" fill="#F6F6F6"></path>
                        <path d="M330.908,210.1981 L168.546,210.1981 C163.676,210.1981 159.727,206.2501 159.727,201.3791 L159.727,79.0171 C159.727,74.1461 163.676,70.1981 168.546,70.1981 L330.908,70.1981 C335.779,70.1981 339.727,74.1461 339.727,79.0171 L339.727,201.3791 C339.727,206.2501 335.779,210.1981 330.908,210.1981 L330.908,210.1981 Z" id="Stroke-20" stroke="#00BFB3" stroke-width="4"></path>
                        <path d="M299.7272,139.1981 C299.7272,111.5841 277.3412,89.1981 249.7272,89.1981" id="Stroke-22" stroke="#00BFB3" stroke-width="4"></path>
                        <polyline id="Stroke-24" stroke="#13A7DF" stroke-width="4" stroke-linecap="round" stroke-linejoin="round" points="249.7272 89.1981 249.7272 139.1981 299.7272 139.1981"></polyline>
                        <polyline id="Stroke-26" stroke="#00BFB3" stroke-width="2" stroke-linejoin="round" points="283.0605 148.5315 241.3935 148.5315 241.3935 106.8645"></polyline>
                        <path d="M241.3939,106.8648 C218.3819,106.8648 199.7269,125.5198 199.7269,148.5318 C199.7269,171.5438 218.3819,190.1978 241.3939,190.1978 C264.4059,190.1978 283.0609,171.5438 283.0609,148.5318" id="Stroke-28" stroke="#13A7DF" stroke-width="2" stroke-linecap="round" stroke-linejoin="round"></path>
                        <path d="M844.7272,0.1981 L974.7272,0.1981 C977.4882,0.1981 979.7272,2.4371 979.7272,5.1981 L979.7272,105.1981 C979.7272,107.9591 977.4882,110.1981 974.7272,110.1981 L844.7272,110.1981 C841.9662,110.1981 839.7272,107.9591 839.7272,105.1981 L839.7272,5.1981 C839.7272,2.4371 841.9662,0.1981 844.7272,0.1981 L844.7272,0.1981 Z" id="Stroke-30" stroke="#13A7DF" stroke-width="2" stroke-linecap="round" stroke-linejoin="round"></path>
                        <path d="M965.9286,23.2875 C966.9836,23.3625 967.8796,22.4925 967.8796,21.3925 L967.8796,15.1845 C967.8796,14.4505 968.2866,13.7815 968.9246,13.4675 L977.6926,9.1495 C977.9376,9.0305 980.2046,7.9675 980.4746,7.9675" id="Stroke-32" stroke="#00BFB3" stroke-width="2"></path>
                        <path d="M884.5317,47.9241 L889.2687,47.9241 C889.9767,47.9241 890.6207,48.3491 890.9227,49.0141 L892.7447,53.0371 C893.0597,53.7321 893.7457,54.1611 894.4827,54.1261 L908.6637,53.4341 C909.4687,53.3951 910.1537,52.8111 910.3497,51.9971 L911.6067,46.7701 C911.7597,46.1341 912.2187,45.6241 912.8197,45.4231 L913.5137,45.1911 C914.5717,44.8361 915.0827,43.5901 914.5967,42.5511 L913.3467,39.8791 C913.2247,39.6211 913.1617,39.3361 913.1617,39.0481 L913.1617,35.6691 C913.1617,34.6201 912.3437,33.7691 911.3347,33.7691 L909.4237,33.7691 C908.9657,33.7691 908.5247,33.9481 908.1877,34.2701 L899.5667,42.5061 C899.2187,42.8381 898.7597,43.0181 898.2867,43.0051 L889.4067,42.7801 C888.7217,42.7631 888.1037,42.3481 887.8057,41.7051 L885.4867,36.6981 C885.1317,35.9321 885.3097,35.0131 885.9227,34.4501 L895.8747,25.3061 C896.0527,25.1431 896.2597,25.0181 896.4847,24.9361 L912.2787,19.2201 C912.6807,19.0751 913.1187,19.0811 913.5167,19.2351 L923.1407,22.9621 C923.4627,23.0871 923.7457,23.3041 923.9547,23.5881 L929.8927,31.6631 C930.2377,32.1331 930.7757,32.4081 931.3447,32.4081 L947.6507,32.4081 C948.1917,32.4081 948.7067,32.1581 949.0537,31.7251 L955.7627,23.3541 C956.1387,22.8861 956.7067,22.6341 957.2907,22.6751 L965.9287,23.2871" id="Stroke-34" stroke="#13A7DF" stroke-width="2" stroke-linecap="round" stroke-linejoin="round"></path>
                        <path d="M921.0331,101.8309 L930.4111,93.8699 C930.5921,93.2299 930.4371,92.5379 930.0011,92.0469 L921.1951,82.1339 C920.6281,81.4959 919.7151,81.3389 918.9811,81.7539 L912.1201,85.6319 C911.3561,86.0639 910.4041,85.8749 909.8461,85.1819 L902.9761,76.6419 C902.6281,76.2099 902.1151,75.9609 901.5741,75.9609 L900.5941,75.9609 C899.2551,75.9609 898.3711,77.4089 898.9411,78.6689 L901.9201,85.2509 C902.2281,85.9329 902.1201,86.7409 901.6421,87.3089 L897.1321,92.6719 C896.3591,93.5929 894.9641,93.5249 894.2761,92.5349 L892.9111,90.5699 C892.4891,89.9619 892.4501,89.1539 892.8111,88.5059 L894.5691,85.3479 C894.8961,84.7609 894.8971,84.0379 894.5721,83.4489 L891.0411,77.0689 C890.6701,76.3989 889.9461,76.0289 889.2101,76.1349 L882.9441,77.0289 C882.8431,77.0429 882.7431,77.0659 882.6471,77.0969 L875.7421,79.3399 C874.9571,79.5959 874.4341,80.3629 874.4601,81.2169 L874.6051,85.7139 C874.6421,86.8809 873.6671,87.8069 872.5531,87.6629 L864.0241,86.5549 C863.2041,86.4489 862.5541,85.7819 862.4401,84.9309 L861.3041,76.4089 C861.1691,75.3989 861.8261,74.4589 862.7921,74.2789 L866.6031,73.5719 C867.5931,73.3869 868.2531,72.4059 868.0821,71.3759 L867.4961,67.8809 C867.4011,67.3109 867.5611,66.7259 867.9311,66.2939 L873.0841,60.2659 C873.4311,59.8599 873.9281,59.6289 874.4491,59.6289 L877.3881,59.6289 C878.1241,59.6289 878.7881,59.1689 879.0721,58.4619 L882.8471,49.0909 C883.1311,48.3839 883.7951,47.9239 884.5321,47.9239" id="Stroke-36" stroke="#00BFB3" stroke-width="2"></path>
                        <path d="M867.7478,47.3902 L867.7478,51.9922 C867.7478,52.2242 867.6958,52.4512 867.5968,52.6582 L866.4888,54.9552 C866.2028,55.5492 866.3308,56.2682 866.8028,56.7162 L868.0188,57.8702 C868.5368,58.3622 869.3218,58.3892 869.8698,57.9342 L872.6868,55.6002 C873.1428,55.2212 873.3318,54.5922 873.1628,54.0102 L871.1138,46.9612 C870.9328,46.3342 870.3768,45.9062 869.7478,45.9062 L869.1748,45.9062 C868.3868,45.9062 867.7478,46.5702 867.7478,47.3902 L867.7478,47.3902 Z" id="Stroke-38" stroke="#13A7DF" stroke-width="2" stroke-linecap="round" stroke-linejoin="round"></path>
                        <path d="M862.9957,48.8698 L863.3157,50.2008 C863.4007,50.5548 863.3587,50.9298 863.1947,51.2528 L862.2297,53.1578 C861.8057,53.9968 860.7437,54.2128 860.0457,53.6018 L859.1127,52.7828 C858.5547,52.2928 858.4417,51.4428 858.8517,50.8148 L860.4297,48.3968 C861.1227,47.3348 862.6957,47.6258 862.9957,48.8698 L862.9957,48.8698 Z" id="Stroke-40" stroke="#00BFB3" stroke-width="2"></path>
                        <path d="M857.3666,110.1981 L865.2926,97.8071 C865.4036,97.6331 865.5796,97.5101 865.7806,97.4661 L886.8036,92.8601 C887.1106,92.7931 887.4276,92.9171 887.6076,93.1741 L891.4906,98.7371 C891.6216,98.9241 891.8276,99.0441 892.0546,99.0661 L921.0336,101.8311" id="Stroke-42" stroke="#13A7DF" stroke-width="2" stroke-linecap="round" stroke-linejoin="round"></path>
                        <path d="M978.7272,101.1981 L960.5242,105.7491 L945.1162,103.2331 C944.4172,103.0281 943.8452,103.8121 944.2542,104.4151 L947.6072,109.3651 C947.7292,109.5451 947.9202,109.6651 948.1352,109.6981" id="Stroke-44" stroke="#13A7DF" stroke-width="2" stroke-linecap="round" stroke-linejoin="round"></path>
                        <path d="M844.7272,130.1981 L914.7272,130.1981 C917.4882,130.1981 919.7272,132.4371 919.7272,135.1981 L919.7272,185.1981 C919.7272,187.9591 917.4882,190.1981 914.7272,190.1981 L844.7272,190.1981 C841.9662,190.1981 839.7272,187.9591 839.7272,185.1981 L839.7272,135.1981 C839.7272,132.4371 841.9662,130.1981 844.7272,130.1981 L844.7272,130.1981 Z" id="Stroke-46" stroke="#13A7DF" stroke-width="2" stroke-linecap="round" stroke-linejoin="round"></path>
                        <path d="M648.5464,210.1981 L810.9084,210.1981 C815.7784,210.1981 819.7274,206.2501 819.7274,201.3791 L819.7274,79.0171 C819.7274,74.1461 815.7784,70.1981 810.9084,70.1981 L648.5464,70.1981 C643.6754,70.1981 639.7274,74.1461 639.7274,79.0171 L639.7274,201.3791 C639.7274,206.2501 643.6754,210.1981 648.5464,210.1981" id="Fill-56" fill="#F6F6F6"></path>
                        <path d="M648.5464,210.1981 L810.9084,210.1981 C815.7784,210.1981 819.7274,206.2501 819.7274,201.3791 L819.7274,79.0171 C819.7274,74.1461 815.7784,70.1981 810.9084,70.1981 L648.5464,70.1981 C643.6754,70.1981 639.7274,74.1461 639.7274,79.0171 L639.7274,201.3791 C639.7274,206.2501 643.6754,210.1981 648.5464,210.1981 L648.5464,210.1981 Z" id="Stroke-58" stroke="#00BFB3" stroke-width="4"></path>
                        <polyline id="Stroke-60" stroke="#00BFB3" stroke-width="2" points="672.2711 100.7693 785.4081 86.6273 729.7271 70.5383"></polyline>
                        <path d="M771.266,70.1981 L785.408,86.6271" id="Stroke-62" stroke="#13A7DF" stroke-width="2" stroke-linecap="round" stroke-linejoin="round"></path>
                        <polyline id="Stroke-64" stroke="#00BFB3" stroke-width="2" points="819.7272 82.0657 785.4082 86.6277 819.7272 134.1977"></polyline>
                        <polyline id="Stroke-66" stroke="#13A7DF" stroke-width="2" stroke-linecap="round" stroke-linejoin="round" points="796.0148 157.9445 785.4078 86.6275 771.2658 199.7645"></polyline>
                        <polyline id="Stroke-68" stroke="#13A7DF" stroke-width="4" stroke-linecap="round" stroke-linejoin="round" points="785.4081 86.6272 728.8391 123.6792 714.1621 187.7642"></polyline>
                        <path d="M667.2711,131.866 L728.8401,123.679" id="Stroke-70" stroke="#00BFB3" stroke-width="2"></path>
                        <polyline id="Stroke-72" stroke="#13A7DF" stroke-width="4" stroke-linecap="round" stroke-linejoin="round" points="745.3041 186.8354 760.6591 146.7314 785.4081 86.6274"></polyline>
                        <path d="M792.4792,79.5561 C796.3842,83.4611 796.3842,89.7931 792.4792,93.6981 C788.5742,97.6031 782.2422,97.6031 778.3372,93.6981 C774.4322,89.7931 774.4322,83.4611 778.3372,79.5561 C782.2422,75.6511 788.5742,75.6511 792.4792,79.5561" id="Fill-74" fill="#F6F6F6"></path>
                        <path d="M792.4792,79.5561 C796.3842,83.4611 796.3842,89.7931 792.4792,93.6981 C788.5742,97.6031 782.2422,97.6031 778.3372,93.6981 C774.4322,89.7931 774.4322,83.4611 778.3372,79.5561 C782.2422,75.6511 788.5742,75.6511 792.4792,79.5561 L792.4792,79.5561 Z" id="Stroke-76" stroke="#00BFB3" stroke-width="4"></path>
                        <path d="M752.3751,179.7643 C756.2801,183.6693 756.2801,190.0013 752.3751,193.9063 C748.4701,197.8113 742.1381,197.8113 738.2331,193.9063 C734.3281,190.0013 734.3281,183.6693 738.2331,179.7643 C742.1381,175.8593 748.4701,175.8593 752.3751,179.7643" id="Fill-78" fill="#F6F6F6"></path>
                        <path d="M752.3751,179.7643 C756.2801,183.6693 756.2801,190.0013 752.3751,193.9063 C748.4701,197.8113 742.1381,197.8113 738.2331,193.9063 C734.3281,190.0013 734.3281,183.6693 738.2331,179.7643 C742.1381,175.8593 748.4701,175.8593 752.3751,179.7643 L752.3751,179.7643 Z" id="Stroke-80" stroke="#00BFB3" stroke-width="4"></path>
                        <path d="M719.1117,182.8145 C721.8457,185.5485 721.8457,189.9805 719.1117,192.7135 C716.3777,195.4475 711.9457,195.4475 709.2127,192.7135 C706.4787,189.9805 706.4787,185.5485 709.2127,182.8145 C711.9457,180.0805 716.3777,180.0805 719.1117,182.8145" id="Fill-82" fill="#F6F6F6"></path>
                        <path d="M719.1117,182.8145 C721.8457,185.5485 721.8457,189.9805 719.1117,192.7135 C716.3777,195.4475 711.9457,195.4475 709.2127,192.7135 C706.4787,189.9805 706.4787,185.5485 709.2127,182.8145 C711.9457,180.0805 716.3777,180.0805 719.1117,182.8145 L719.1117,182.8145 Z" id="Stroke-84" stroke="#00BFB3" stroke-width="4"></path>
                        <path d="M733.7894,118.7295 C736.5234,121.4635 736.5234,125.8955 733.7894,128.6285 C731.0554,131.3625 726.6234,131.3625 723.8904,128.6285 C721.1564,125.8955 721.1564,121.4635 723.8904,118.7295 C726.6234,115.9955 731.0554,115.9955 733.7894,118.7295" id="Fill-86" fill="#F6F6F6"></path>
                        <path d="M733.7894,118.7295 C736.5234,121.4635 736.5234,125.8955 733.7894,128.6285 C731.0554,131.3625 726.6234,131.3625 723.8904,128.6285 C721.1564,125.8955 721.1564,121.4635 723.8904,118.7295 C726.6234,115.9955 731.0554,115.9955 733.7894,118.7295 L733.7894,118.7295 Z" id="Stroke-88" stroke="#13A7DF" stroke-width="2" stroke-linecap="round" stroke-linejoin="round"></path>
                        <path d="M765.6092,141.7815 C768.3432,144.5155 768.3432,148.9475 765.6092,151.6805 C762.8752,154.4145 758.4432,154.4145 755.7092,151.6805 C752.9762,148.9475 752.9762,144.5155 755.7092,141.7815 C758.4432,139.0475 762.8752,139.0475 765.6092,141.7815" id="Fill-90" fill="#F6F6F6"></path>
                        <path d="M765.6092,141.7815 C768.3432,144.5155 768.3432,148.9475 765.6092,151.6805 C762.8752,154.4145 758.4432,154.4145 755.7092,151.6805 C752.9762,148.9475 752.9762,144.5155 755.7092,141.7815 C758.4432,139.0475 762.8752,139.0475 765.6092,141.7815 L765.6092,141.7815 Z" id="Stroke-92" stroke="#13A7DF" stroke-width="2" stroke-linecap="round" stroke-linejoin="round"></path>
                        <path d="M800.9645,152.9947 C803.6985,155.7287 803.6985,160.1607 800.9645,162.8937 C798.2305,165.6277 793.7985,165.6277 791.0655,162.8937 C788.3315,160.1607 788.3315,155.7287 791.0655,152.9947 C793.7985,150.2607 798.2305,150.2607 800.9645,152.9947" id="Fill-94" fill="#F6F6F6"></path>
                        <path d="M800.9645,152.9947 C803.6985,155.7287 803.6985,160.1607 800.9645,162.8937 C798.2305,165.6277 793.7985,165.6277 791.0655,162.8937 C788.3315,160.1607 788.3315,155.7287 791.0655,152.9947 C793.7985,150.2607 798.2305,150.2607 800.9645,152.9947 L800.9645,152.9947 Z" id="Stroke-96" stroke="#13A7DF" stroke-width="2" stroke-linecap="round" stroke-linejoin="round"></path>
                        <path d="M774.8016,196.2287 C776.7546,198.1817 776.7546,201.3467 774.8016,203.2997 C772.8486,205.2527 769.6836,205.2527 767.7306,203.2997 C765.7776,201.3467 765.7776,198.1817 767.7306,196.2287 C769.6836,194.2757 772.8486,194.2757 774.8016,196.2287" id="Fill-98" fill="#F6F6F6"></path>
                        <path d="M774.8016,196.2287 C776.7546,198.1817 776.7546,201.3467 774.8016,203.2997 C772.8486,205.2527 769.6836,205.2527 767.7306,203.2997 C765.7776,201.3467 765.7776,198.1817 767.7306,196.2287 C769.6836,194.2757 772.8486,194.2757 774.8016,196.2287 L774.8016,196.2287 Z" id="Stroke-100" stroke="#13A7DF" stroke-width="2" stroke-linecap="round" stroke-linejoin="round"></path>
                        <path d="M675.8066,97.2338 C677.7596,99.1868 677.7596,102.3518 675.8066,104.3048 C673.8536,106.2578 670.6886,106.2578 668.7356,104.3048 C666.7826,102.3518 666.7826,99.1868 668.7356,97.2338 C670.6886,95.2808 673.8536,95.2808 675.8066,97.2338" id="Fill-102" fill="#F6F6F6"></path>
                        <path d="M675.8066,97.2338 C677.7596,99.1868 677.7596,102.3518 675.8066,104.3048 C673.8536,106.2578 670.6886,106.2578 668.7356,104.3048 C666.7826,102.3518 666.7826,99.1868 668.7356,97.2338 C670.6886,95.2808 673.8536,95.2808 675.8066,97.2338 L675.8066,97.2338 Z" id="Stroke-104" stroke="#13A7DF" stroke-width="2" stroke-linecap="round" stroke-linejoin="round"></path>
                        <path d="M674.3422,126.1247 C678.2472,130.0297 678.2472,136.3617 674.3422,140.2667 C670.4372,144.1717 664.1052,144.1717 660.2002,140.2667 C656.2952,136.3617 656.2952,130.0297 660.2002,126.1247 C664.1052,122.2197 670.4372,122.2197 674.3422,126.1247" id="Fill-106" fill="#F6F6F6"></path>
                        <path d="M674.3422,126.1247 C678.2472,130.0297 678.2472,136.3617 674.3422,140.2667 C670.4372,144.1717 664.1052,144.1717 660.2002,140.2667 C656.2952,136.3617 656.2952,130.0297 660.2002,126.1247 C664.1052,122.2197 670.4372,122.2197 674.3422,126.1247 L674.3422,126.1247 Z" id="Stroke-108" stroke="#00BFB3" stroke-width="4"></path>
                        <path d="M115,110.1981 L115,65.1981 C115,62.4371 112.761,60.1981 110,60.1981 L85,60.1981" id="Stroke-110" stroke="#00BFB3" stroke-width="4" stroke-linejoin="round"></path>
                        <path d="M55,70.1981 L30,70.1981 C27.239,70.1981 25,72.4371 25,75.1981 L25,110.1981" id="Stroke-112" stroke="#00BFB3" stroke-width="4" stroke-linejoin="round"></path>
                        <path d="M135,0.1981 L5,0.1981 C2.239,0.1981 0,2.4371 0,5.1981 L0,105.1981 C0,107.9591 2.239,110.1981 5,110.1981 L135,110.1981 C137.761,110.1981 140,107.9591 140,105.1981 L140,5.1981 C140,2.4371 137.761,0.1981 135,0.1981 L135,0.1981 Z" id="Stroke-114" stroke="#13A7DF" stroke-width="2" stroke-linecap="round" stroke-linejoin="round"></path>
                        <path d="M85,110.1981 L85,35.1981 C85,32.4371 82.761,30.1981 80,30.1981 L60,30.1981 C57.239,30.1981 55,32.4371 55,35.1981 L55,110.1981" id="Stroke-116" stroke="#13A7DF" stroke-width="4" stroke-linejoin="round"></path>
                        <path d="M705.1516,271.1162 C706.0796,271.1162 706.9956,270.6862 707.5826,269.8782 L713.8896,261.1852 C714.8626,259.8452 714.5646,257.9692 713.2236,256.9962 C711.8826,256.0222 710.0056,256.3222 709.0336,257.6622 L702.7256,266.3542 C701.7526,267.6952 702.0506,269.5712 703.3926,270.5442 C703.9236,270.9302 704.5406,271.1162 705.1516,271.1162" id="Fill-118" fill="#F6F6F6"></path>
                        <path d="M705.1516,271.1162 C706.0796,271.1162 706.9956,270.6862 707.5826,269.8782 L713.8896,261.1852 C714.8626,259.8452 714.5646,257.9692 713.2236,256.9962 C711.8826,256.0222 710.0056,256.3222 709.0336,257.6622 L702.7256,266.3542 C701.7526,267.6952 702.0506,269.5712 703.3926,270.5442 C703.9236,270.9302 704.5406,271.1162 705.1516,271.1162 L705.1516,271.1162 Z" id="Stroke-120" stroke="#00BFB3" stroke-width="2" stroke-linejoin="round"></path>
                        <path d="M719.6332,301 C719.9482,301 720.2682,300.97 720.5892,300.908 C723.3002,300.383 725.0722,297.76 724.5472,295.049 L719.3712,268.32 C718.8462,265.607 716.2262,263.839 713.5112,264.361 C710.8002,264.887 709.0292,267.51 709.5532,270.221 L714.7302,296.949 C715.1932,299.34 717.2862,301 719.6332,301" id="Fill-122" fill="#F6F6F6"></path>
                        <path d="M719.6332,301 C719.9482,301 720.2682,300.97 720.5892,300.908 C723.3002,300.383 725.0722,297.76 724.5472,295.049 L719.3712,268.32 C718.8462,265.607 716.2262,263.839 713.5112,264.361 C710.8002,264.887 709.0292,267.51 709.5532,270.221 L714.7302,296.949 C715.1932,299.34 717.2862,301 719.6332,301 L719.6332,301 Z" id="Stroke-124" stroke="#13A7DF" stroke-width="2" stroke-linecap="round" stroke-linejoin="round"></path>
                        <path d="M710.6008,299.9824 C710.8538,299.9824 711.1088,299.9624 711.3668,299.9234 C714.0958,299.5034 715.9688,296.9524 715.5488,294.2224 L713.9328,283.6974 L721.0798,273.8784 C723.0728,271.9654 723.1378,268.8004 721.2258,266.8084 C719.3138,264.8144 716.1478,264.7514 714.1568,266.6634 L705.1338,278.2814 C703.9588,279.4094 703.4068,281.0384 703.6538,282.6474 L705.6648,295.7404 C706.0448,298.2124 708.1748,299.9824 710.6008,299.9824" id="Fill-126" fill="#F6F6F6"></path>
                        <path d="M710.6008,299.9824 C710.8538,299.9824 711.1088,299.9624 711.3668,299.9234 C714.0958,299.5034 715.9688,296.9524 715.5488,294.2224 L713.9328,283.6974 L721.0798,273.8784 C723.0728,271.9654 723.1378,268.8004 721.2258,266.8084 C719.3138,264.8144 716.1478,264.7514 714.1568,266.6634 L705.1338,278.2814 C703.9588,279.4094 703.4068,281.0384 703.6538,282.6474 L705.6648,295.7404 C706.0448,298.2124 708.1748,299.9824 710.6008,299.9824 L710.6008,299.9824 Z" id="Stroke-128" stroke="#00BFB3" stroke-width="2" stroke-linejoin="round"></path>
                        <polygon id="Fill-130" fill="#F6F6F6" points="714.54 243.739 717.54 243.739 717.54 239.353 714.54 239.353"></polygon>
                        <polygon id="Stroke-132" stroke="#13A7DF" stroke-width="2" stroke-linecap="round" stroke-linejoin="round" points="714.54 243.739 717.54 243.739 717.54 239.353 714.54 239.353"></polygon>
                        <g id="Group-135" transform="translate(709.000000, 242.000000)">
                            <path d="M11.1324,2.0702 C10.0094,1.1762 8.5864,0.6422 7.0404,0.6422 C3.4064,0.6422 0.4614,3.5882 0.4614,7.2212 L0.4614,26.8352 C0.4614,30.4682 13.6184,30.4682 13.6184,26.8352 L13.6184,7.2212" id="Fill-133" fill="#F6F6F6"></path>
                            <path d="M11.1324,2.0702 C10.0094,1.1762 8.5864,0.6422 7.0404,0.6422 C3.4064,0.6422 0.4614,3.5882 0.4614,7.2212 L0.4614,26.8352 C0.4614,30.4682 13.6184,30.4682 13.6184,26.8352 L13.6184,7.2212" id="Stroke-134" stroke="#13A7DF" stroke-width="2" stroke-linecap="round" stroke-linejoin="round"></path>
                        </g>
                        <path d="M705.6709,231.1246 C705.6709,236.2136 709.7959,240.3386 714.8849,240.3386 C719.9739,240.3386 724.0989,236.2136 724.0989,231.1246 C724.0989,226.0356 719.9739,221.9106 714.8849,221.9106 C709.7959,221.9106 705.6709,226.0356 705.6709,231.1246" id="Fill-136" fill="#F6F6F6"></path>
                        <path d="M705.6709,231.1246 C705.6709,236.2136 709.7959,240.3386 714.8849,240.3386 C719.9739,240.3386 724.0989,236.2136 724.0989,231.1246 C724.0989,226.0356 719.9739,221.9106 714.8849,221.9106 C709.7959,221.9106 705.6709,226.0356 705.6709,231.1246 L705.6709,231.1246 Z" id="Stroke-137" stroke="#00BFB3" stroke-width="2" stroke-linejoin="round"></path>
                        <path d="M704.1218,221.3109 C704.1218,220.0289 705.1608,218.9899 706.4428,218.9899 C707.1368,218.9899 707.7578,219.2959 708.1838,219.7789 C708.6088,219.2959 709.2298,218.9899 709.9238,218.9899 C710.6178,218.9899 711.2398,219.2959 711.6648,219.7789 C712.0898,219.2959 712.7108,218.9899 713.4058,218.9899 C714.2638,218.9899 715.0118,219.4579 715.4128,220.1509 L719.2078,220.1509 C720.4898,220.1509 721.5288,221.1899 721.5288,222.4709 C724.0918,222.4709 726.1698,224.5499 726.1698,227.1129 C726.1698,228.7319 725.3388,230.1499 724.0818,230.9789 L724.0818,232.2549 C724.0818,232.8959 723.5628,233.4149 722.9218,233.4149 C722.2808,233.4149 721.7618,232.8959 721.7618,232.2549 L721.7618,231.7429 L721.7618,229.7819 L721.7618,228.2739 C721.7618,227.6329 721.2418,227.1129 720.6008,227.1129 L720.6008,227.1069 L719.2078,227.1069 L719.2078,227.1129 L707.6028,227.1129 C705.6808,227.1129 704.1218,225.5549 704.1218,223.6319 L704.1218,221.3109 Z" id="Fill-138" fill="#F6F6F6"></path>
                        <path d="M704.1218,221.3109 C704.1218,220.0289 705.1608,218.9899 706.4428,218.9899 C707.1368,218.9899 707.7578,219.2959 708.1838,219.7789 C708.6088,219.2959 709.2298,218.9899 709.9238,218.9899 C710.6178,218.9899 711.2398,219.2959 711.6648,219.7789 C712.0898,219.2959 712.7108,218.9899 713.4058,218.9899 C714.2638,218.9899 715.0118,219.4579 715.4128,220.1509 L719.2078,220.1509 C720.4898,220.1509 721.5288,221.1899 721.5288,222.4709 C724.0918,222.4709 726.1698,224.5499 726.1698,227.1129 C726.1698,228.7319 725.3388,230.1499 724.0818,230.9789 L724.0818,232.2549 C724.0818,232.8959 723.5628,233.4149 722.9218,233.4149 C722.2808,233.4149 721.7618,232.8959 721.7618,232.2549 L721.7618,231.7429 L721.7618,229.7819 L721.7618,228.2739 C721.7618,227.6329 721.2418,227.1129 720.6008,227.1129 L720.6008,227.1069 L719.2078,227.1069 L719.2078,227.1129 L707.6028,227.1129 C705.6808,227.1129 704.1218,225.5549 704.1218,223.6319 L704.1218,221.3109 L704.1218,221.3109 Z" id="Stroke-139" stroke="#13A7DF" stroke-width="2" stroke-linecap="round" stroke-linejoin="round"></path>
                        <path d="M722.6183,268.6045 C724.2753,268.6045 725.6183,267.2615 725.6183,265.6045 L725.6183,256.3435 C725.6183,256.0035 725.5603,255.6665 725.4483,255.3475 L722.0993,245.8375 C721.5493,244.2755 719.8353,243.4585 718.2733,244.0035 C716.7103,244.5545 715.8893,246.2675 716.4403,247.8305 L719.6183,256.8565 L719.6183,265.6045 C719.6183,267.2615 720.9613,268.6045 722.6183,268.6045" id="Fill-140" fill="#F6F6F6"></path>
                        <path d="M722.6183,268.6045 C724.2753,268.6045 725.6183,267.2615 725.6183,265.6045 L725.6183,256.3435 C725.6183,256.0035 725.5603,255.6665 725.4483,255.3475 L722.0993,245.8375 C721.5493,244.2755 719.8353,243.4585 718.2733,244.0035 C716.7103,244.5545 715.8893,246.2675 716.4403,247.8305 L719.6183,256.8565 L719.6183,265.6045 C719.6183,267.2615 720.9613,268.6045 722.6183,268.6045 L722.6183,268.6045 Z" id="Stroke-141" stroke="#13A7DF" stroke-width="2" stroke-linecap="round" stroke-linejoin="round"></path>
                        <g id="Group-144" transform="translate(504.000000, 240.000000)">
                            <path d="M0.7272,30.1981 L0.7272,5.1981 C0.7272,2.4371 2.9662,0.1981 5.7272,0.1981 L35.7272,0.1981 C38.4882,0.1981 40.7272,2.4371 40.7272,5.1981 L40.7272,30.1981" id="Fill-142" fill="#F6F6F6"></path>
                            <path d="M0.7272,30.1981 L0.7272,5.1981 C0.7272,2.4371 2.9662,0.1981 5.7272,0.1981 L35.7272,0.1981 C38.4882,0.1981 40.7272,2.4371 40.7272,5.1981 L40.7272,30.1981" id="Stroke-143" stroke="#00BFB3" stroke-width="2"></path>
                        </g>
                        <g id="Group-147" transform="translate(434.000000, 240.000000)">
                            <path d="M0.7272,30.1981 L0.7272,5.1981 C0.7272,2.4371 2.9662,0.1981 5.7272,0.1981 L35.7272,0.1981 C38.4882,0.1981 40.7272,2.4371 40.7272,5.1981 L40.7272,30.1981" id="Fill-145" fill="#F6F6F6"></path>
                            <path d="M0.7272,30.1981 L0.7272,5.1981 C0.7272,2.4371 2.9662,0.1981 5.7272,0.1981 L35.7272,0.1981 C38.4882,0.1981 40.7272,2.4371 40.7272,5.1981 L40.7272,30.1981" id="Stroke-146" stroke="#13A7DF" stroke-width="2" stroke-linecap="round" stroke-linejoin="round"></path>
                        </g>
                        <g id="Group-150" transform="translate(644.000000, 240.000000)">
                            <path d="M0.7272,30.1981 L0.7272,5.1981 C0.7272,2.4371 2.9662,0.1981 5.7272,0.1981 L35.7272,0.1981 C38.4882,0.1981 40.7272,2.4371 40.7272,5.1981 L40.7272,30.1981" id="Fill-148" fill="#F6F6F6"></path>
                            <path d="M0.7272,30.1981 L0.7272,5.1981 C0.7272,2.4371 2.9662,0.1981 5.7272,0.1981 L35.7272,0.1981 C38.4882,0.1981 40.7272,2.4371 40.7272,5.1981 L40.7272,30.1981" id="Stroke-149" stroke="#00BFB3" stroke-width="2"></path>
                        </g>
                        <g id="Group-153" transform="translate(574.000000, 240.000000)">
                            <path d="M0.7272,30.1981 L0.7272,5.1981 C0.7272,2.4371 2.9662,0.1981 5.7272,0.1981 L35.7272,0.1981 C38.4882,0.1981 40.7272,2.4371 40.7272,5.1981 L40.7272,30.1981" id="Fill-151" fill="#F6F6F6"></path>
                            <path d="M0.7272,30.1981 L0.7272,5.1981 C0.7272,2.4371 2.9662,0.1981 5.7272,0.1981 L35.7272,0.1981 C38.4882,0.1981 40.7272,2.4371 40.7272,5.1981 L40.7272,30.1981" id="Stroke-152" stroke="#13A7DF" stroke-width="2" stroke-linecap="round" stroke-linejoin="round"></path>
                        </g>
                        <g id="Group-156" transform="translate(364.000000, 240.000000)">
                            <path d="M0.7272,30.1981 L0.7272,5.1981 C0.7272,2.4371 2.9662,0.1981 5.7272,0.1981 L35.7272,0.1981 C38.4882,0.1981 40.7272,2.4371 40.7272,5.1981 L40.7272,30.1981" id="Fill-154" fill="#F6F6F6"></path>
                            <path d="M0.7272,30.1981 L0.7272,5.1981 C0.7272,2.4371 2.9662,0.1981 5.7272,0.1981 L35.7272,0.1981 C38.4882,0.1981 40.7272,2.4371 40.7272,5.1981 L40.7272,30.1981" id="Stroke-155" stroke="#00BFB3" stroke-width="2"></path>
                        </g>
                        <g id="Group-159" transform="translate(294.000000, 240.000000)">
                            <path d="M0.7272,30.1981 L0.7272,5.1981 C0.7272,2.4371 2.9662,0.1981 5.7272,0.1981 L35.7272,0.1981 C38.4882,0.1981 40.7272,2.4371 40.7272,5.1981 L40.7272,30.1981" id="Fill-157" fill="#F6F6F6"></path>
                            <path d="M0.7272,30.1981 L0.7272,5.1981 C0.7272,2.4371 2.9662,0.1981 5.7272,0.1981 L35.7272,0.1981 C38.4882,0.1981 40.7272,2.4371 40.7272,5.1981 L40.7272,30.1981" id="Stroke-158" stroke="#13A7DF" stroke-width="2" stroke-linecap="round" stroke-linejoin="round"></path>
                        </g>
                        <path d="M100,181.1981 L112,181.1981 C115.32,181.1981 118,178.5181 118,175.1981 L118,157.1981 C118,147.2581 109.94,139.1981 100,139.1981 C90.06,139.1981 82,147.2581 82,157.1981 L82,171.1981" id="Stroke-160" stroke="#13A7DF" stroke-width="2" stroke-linecap="round" stroke-linejoin="round"></path>
                        <path d="M88,171.1981 L88,157.1981" id="Stroke-161" stroke="#00BFB3" stroke-width="4" stroke-linecap="round" stroke-linejoin="round"></path>
                        <path d="M112,171.1981 L112,157.1981" id="Stroke-162" stroke="#00BFB3" stroke-width="4" stroke-linecap="round" stroke-linejoin="round"></path>
                        <path d="M135,130.1981 L65,130.1981 C62.239,130.1981 60,132.4371 60,135.1981 L60,185.1981 C60,187.9591 62.239,190.1981 65,190.1981 L130,190.1981 L140,200.1981 L140,185.1981 L140,180.1981 L140,135.1981 C140,132.4371 137.761,130.1981 135,130.1981 L135,130.1981 Z" id="Stroke-163" stroke="#00BFB3" stroke-width="2"></path>
                        <path d="M370.3484,301 L370.3484,301 C367.9264,301 365.9624,299.036 365.9624,296.614 L365.9624,267.24 L374.7344,267.24 L374.7344,296.614 C374.7344,299.036 372.7704,301 370.3484,301" id="Fill-164" fill="#F6F6F6"></path>
                        <path d="M370.3484,301 L370.3484,301 C367.9264,301 365.9624,299.036 365.9624,296.614 L365.9624,267.24 L374.7344,267.24 L374.7344,296.614 C374.7344,299.036 372.7704,301 370.3484,301 L370.3484,301 Z" id="Stroke-165" stroke="#00BFB3" stroke-width="2" stroke-linejoin="round"></path>
                        <path d="M377.5741,229.2432 C377.1221,224.2122 372.8871,220.1282 367.7381,220.1282 C362.2881,220.1282 357.8711,224.5462 357.8711,229.9952 L357.8711,249.4512 L375.8851,249.4512 L375.8851,233.1502 C376.9701,231.5652 377.6001,229.5372 377.5741,229.2432" id="Fill-166" fill="#F6F6F6"></path>
                        <path d="M377.5741,229.2432 C377.1221,224.2122 372.8871,220.1282 367.7381,220.1282 C362.2881,220.1282 357.8711,224.5462 357.8711,229.9952 L357.8711,249.4512 L375.8851,249.4512 L375.8851,233.1502 C376.9701,231.5652 377.6001,229.5372 377.5741,229.2432 L377.5741,229.2432 Z" id="Stroke-167" stroke="#13A7DF" stroke-width="2" stroke-linecap="round" stroke-linejoin="round"></path>
                        <polygon id="Fill-168" fill="#F6F6F6" points="366.656 243.167 369.656 243.167 369.656 238.781 366.656 238.781"></polygon>
                        <polygon id="Stroke-169" stroke="#13A7DF" stroke-width="2" stroke-linecap="round" stroke-linejoin="round" points="366.656 243.167 369.656 243.167 369.656 238.781 366.656 238.781"></polygon>
                        <path d="M377.5741,229.2432 C375.6531,229.2432 373.8881,228.0062 373.2951,226.2862 C372.7011,228.0062 371.0731,229.2432 369.1521,229.2432 L360.0961,229.2432 C360.0631,229.5512 360.0631,229.6782 360.0631,229.9952 C360.0631,230.8322 360.1831,231.6402 360.4021,232.4062 C360.1511,232.7622 360.0031,233.1952 360.0031,233.6642 C360.0031,234.8752 360.9851,235.8572 362.1961,235.8572 C362.2331,235.8572 362.2691,235.8532 362.3061,235.8512 C363.9111,237.6402 366.2411,238.7672 368.8351,238.7672 C373.6791,238.7672 377.6061,234.8402 377.6061,229.9952 C377.6061,229.7422 377.5951,229.4912 377.5741,229.2432" id="Fill-170" fill="#F6F6F6"></path>
                        <path d="M377.5741,229.2432 C375.6531,229.2432 373.8881,228.0062 373.2951,226.2862 C372.7011,228.0062 371.0731,229.2432 369.1521,229.2432 L360.0961,229.2432 C360.0631,229.5512 360.0631,229.6782 360.0631,229.9952 C360.0631,230.8322 360.1831,231.6402 360.4021,232.4062 C360.1511,232.7622 360.0031,233.1952 360.0031,233.6642 C360.0031,234.8752 360.9851,235.8572 362.1961,235.8572 C362.2331,235.8572 362.2691,235.8532 362.3061,235.8512 C363.9111,237.6402 366.2411,238.7672 368.8351,238.7672 C373.6791,238.7672 377.6061,234.8402 377.6061,229.9952 C377.6061,229.7422 377.5951,229.4912 377.5741,229.2432 L377.5741,229.2432 Z" id="Stroke-171" stroke="#00BFB3" stroke-width="2" stroke-linejoin="round"></path>
                        <path d="M357.5093,295.9499 L357.5093,295.9499 C355.4703,294.6429 354.8763,291.9299 356.1833,289.8909 L361.3243,280.9619 C361.7963,280.2259 362.0373,279.3649 362.0163,278.4899 L361.5423,265.1199 L370.3103,264.9089 L370.8173,279.6219 C370.8593,281.3709 370.3773,283.0919 369.4333,284.5649 L363.5683,294.6239 C362.2613,296.6629 359.5483,297.2569 357.5093,295.9499" id="Fill-172" fill="#F6F6F6"></path>
                        <path d="M357.5093,295.9499 L357.5093,295.9499 C355.4703,294.6429 354.8763,291.9299 356.1833,289.8909 L361.3243,280.9619 C361.7963,280.2259 362.0373,279.3649 362.0163,278.4899 L361.5423,265.1199 L370.3103,264.9089 L370.8173,279.6219 C370.8593,281.3709 370.3773,283.0919 369.4333,284.5649 L363.5683,294.6239 C362.2613,296.6629 359.5483,297.2569 357.5093,295.9499 L357.5093,295.9499 Z" id="Stroke-173" stroke="#00BFB3" stroke-width="2" stroke-linejoin="round"></path>
                        <path d="M383.6129,265.9419 C383.1739,265.9419 382.7299,265.8099 382.3449,265.5369 L377.0459,261.7719 C376.7379,261.5539 376.4919,261.2599 376.3319,260.9179 L370.4569,248.4379 C369.9419,247.3419 370.4119,246.0349 371.5069,245.5199 C372.6029,245.0039 373.9099,245.4739 374.4249,246.5699 L380.0549,258.5299 L384.8849,261.9609 C385.8719,262.6629 386.1039,264.0319 385.4029,265.0189 C384.9749,265.6209 384.2989,265.9419 383.6129,265.9419" id="Fill-174" fill="#F6F6F6"></path>
                        <path d="M383.6129,265.9419 C383.1739,265.9419 382.7299,265.8099 382.3449,265.5369 L377.0459,261.7719 C376.7379,261.5539 376.4919,261.2599 376.3319,260.9179 L370.4569,248.4379 C369.9419,247.3419 370.4119,246.0349 371.5069,245.5199 C372.6029,245.0039 373.9099,245.4739 374.4249,246.5699 L380.0549,258.5299 L384.8849,261.9609 C385.8719,262.6629 386.1039,264.0319 385.4029,265.0189 C384.9749,265.6209 384.2989,265.9419 383.6129,265.9419 L383.6129,265.9419 Z" id="Stroke-175" stroke="#00BFB3" stroke-width="2" stroke-linejoin="round"></path>
                        <g id="Group-178" transform="translate(361.000000, 242.000000)">
                            <path d="M3.0632,1.4984 C4.1862,0.6044 5.6092,0.0704 7.1552,0.0704 C10.7892,0.0704 13.7342,3.0164 13.7342,6.6494 L13.7342,26.2634 C13.7342,29.8964 0.5772,29.8964 0.5772,26.2634 L0.5772,6.6494" id="Fill-176" fill="#F6F6F6"></path>
                            <path d="M3.0632,1.4984 C4.1862,0.6044 5.6092,0.0704 7.1552,0.0704 C10.7892,0.0704 13.7342,3.0164 13.7342,6.6494 L13.7342,26.2634 C13.7342,29.8964 0.5772,29.8964 0.5772,26.2634 L0.5772,6.6494" id="Stroke-177" stroke="#13A7DF" stroke-width="2" stroke-linecap="round" stroke-linejoin="round"></path>
                        </g>
                        <g id="Group-181" transform="translate(353.000000, 243.000000)">
                            <path d="M11.4462,6.3685 L5.5802,12.2735 L11.5002,22.2065 C12.1202,23.2465 11.7792,24.5925 10.7392,25.2125 C10.3872,25.4225 10.0002,25.5225 9.6182,25.5225 C8.8712,25.5225 8.1432,25.1405 7.7332,24.4515 L0.9562,13.0815 C0.4502,12.2335 0.5742,11.1505 1.2592,10.4385 L11.0632,0.4985" id="Fill-179" fill="#F6F6F6"></path>
                            <path d="M11.4462,6.3685 L5.5802,12.2735 L11.5002,22.2065 C12.1202,23.2465 11.7792,24.5925 10.7392,25.2125 C10.3872,25.4225 10.0002,25.5225 9.6182,25.5225 C8.8712,25.5225 8.1432,25.1405 7.7332,24.4515 L0.9562,13.0815 C0.4502,12.2335 0.5742,11.1505 1.2592,10.4385 L11.0632,0.4985" id="Stroke-180" stroke="#13A7DF" stroke-width="2" stroke-linecap="round" stroke-linejoin="round"></path>
                        </g>
                    </g>
                </g>
                <g id="Group-66" transform="translate(874.623841, 156.069185) rotate(-50.000000) translate(-874.623841, -156.069185) translate(854.623841, 131.569185)">
                    <polygon id="Stroke-9" stroke="#00BFB3" stroke-width="2" stroke-linecap="round" stroke-linejoin="round" points="13.023078 48.4479757 17.9920221 48.4479757 17.9920221 44.7212677 13.023078 44.7212677"></polygon>
                    <polygon id="Stroke-11" stroke="#00BFB3" stroke-width="2" stroke-linecap="round" stroke-linejoin="round" points="17.9920221 48.4479757 22.9609662 48.4479757 22.9609662 44.7212677 17.9920221 44.7212677"></polygon>
                    <path d="M19.7530864,39.7516273 L19.7530864,32.2982112" id="Stroke-12" stroke="#00BFB3" stroke-width="2" stroke-linecap="round" stroke-linejoin="round"></path>
                    <polygon id="Stroke-13" stroke="#00BFB3" stroke-width="2" stroke-linecap="round" stroke-linejoin="round" points="22.9609662 48.4479757 27.9299103 48.4479757 27.9299103 44.7212677 22.9609662 44.7212677"></polygon>
                    <polyline id="Stroke-14" stroke="#13A7DF" stroke-width="2" stroke-linecap="round" stroke-linejoin="round" points="12.607528 44.7205714 0.185167702 44.7205714 0.185167702 42.2360994"></polyline>
                    <polyline id="Stroke-15" stroke="#13A7DF" stroke-width="2" stroke-linecap="round" stroke-linejoin="round" points="39.9367205 42.2360994 39.9367205 44.7205714 27.5143602 44.7205714"></polyline>
                    <path d="M27.5143602,22.360323 L27.5143602,42.2360994 L39.9367205,42.2360994 C39.9367205,32.2982112 27.5143602,31.0559752 27.5143602,22.360323 L27.5143602,22.360323 Z" id="Stroke-18" stroke="#00BFB3" stroke-width="2" stroke-linecap="round" stroke-linejoin="round"></path>
                    <path d="M12.607528,22.360323 L12.607528,42.2360994 L0.185167702,42.2360994 C0.185167702,32.2982112 12.607528,31.0559752 12.607528,22.360323 L12.607528,22.360323 Z" id="Stroke-19" stroke="#00BFB3" stroke-width="2" stroke-linecap="round" stroke-linejoin="round"></path>
                    <path d="M20.0609441,7.45341615e-05 C15.9444224,7.45341615e-05 12.607528,11.4765963 12.607528,14.9069068 L12.607528,44.7205714 L27.5143602,44.7205714 L27.5143602,14.9069068 C27.5143602,11.4765963 24.1774658,7.45341615e-05 20.0609441,7.45341615e-05 L20.0609441,7.45341615e-05 Z" id="Stroke-20" stroke="#13A7DF" stroke-width="2" stroke-linecap="round" stroke-linejoin="round"></path>
                    <path d="M23.2458634,13.6646708 C23.5566708,13.6646708 23.7907081,13.3879006 23.7425093,13.0840497 C23.4607702,11.3016894 21.9025093,9.93796273 20.0222609,9.93796273 C18.1420124,9.93796273 16.5835031,11.3016894 16.301764,13.0840497 C16.2535652,13.3879006 16.4876025,13.6646708 16.7984099,13.6646708 L23.2458634,13.6646708 Z" id="Fill-21" fill="#FCD00C"></path>
                </g>
            </g>
        </g>
    </g>
</svg>